# xmcd
#
# Track frame offsets:
#	150
#	10883
#	28036
#	55148
#	66005
#	81827
#	101355
#	123361
#	129758
#	157562
#	178193
#	201831
#	228612
#	242555
#	264100
#
# Disc length: 3789 seconds
#
# Revision: 1
# Processed by: cddbd v1.5.2PL0 Copyright (c) Steve Scherf et al.
# Submitted via: dBpowerAMP V4.0
#
DISCID=b30ecb0f
DTITLE=Rachael Davis - Live In Bremen, Germany
DYEAR=2004
DGENRE=Fusion
TTITLE0=Grandma's Hands
TTITLE1=Feste's Theme (Heavenbound)
TTITLE2=Southern Cross
TTITLE3=All Of Me
TTITLE4=Better Than Me
TTITLE5=Dancing Shoes
TTITLE6=Me And That Train
TTITLE7=The 30-Second Song (Buy My Love)
TTITLE8=Eighth Lit Window
TTITLE9=Angel From Montgomery
TTITLE10=Fragile
TTITLE11=Walking Blues/Crossroads
TTITLE12=Everyday
TTITLE13=Amazing Grace
TTITLE14=Cocktail Wieners
EXTD=
EXTT0=
EXTT1=
EXTT2=
EXTT3=
EXTT4=
EXTT5=
EXTT6=
EXTT7=
EXTT8=
EXTT9=
EXTT10=
EXTT11=
EXTT12=
EXTT13=
EXTT14=
PLAYORDER=
